<svg width="221" height="26" viewBox="0 0 221 26" fill="none" xmlns="http://www.w3.org/2000/svg">
<path d="M10.3345 2.2H6.2305L0.2065 19H3.7105L4.7665 15.88H12.0625L13.1905 19H16.9345L10.3345 2.2ZM5.6065 13.36L8.1745 5.68H8.4145L11.1745 13.36H5.6065ZM30.0387 19H33.2067V2.2H30.1107V13.768H29.9907L21.8787 2.2H18.5427L30.0387 19ZM18.6867 19H21.8307V10.768L18.6867 6.28V19ZM55.6523 2.2H34.9883V5.344H55.6523C58.8203 5.344 61.2203 6.856 61.2203 10.6C61.2203 14.344 58.8203 16.192 55.6523 16.192C51.8843 16.192 50.2043 13.72 50.2043 10.24V9.28H46.9403V10.168C46.9403 15.592 50.0603 19.24 55.6523 19.24C60.6203 19.24 64.4603 16.384 64.4603 10.6C64.4603 5.08 60.6203 2.2 55.6523 2.2ZM40.0523 7.48V19H43.2923V7.48H40.0523ZM78.3434 19H81.5114V2.2H78.4154V13.768H78.2954L70.1834 2.2H66.8474L78.3434 19ZM66.9914 19H70.1354V10.768L66.9914 6.28V19ZM88.021 4.792V2.2H84.757V4.792H88.021ZM84.757 19H87.997V7H84.757V19ZM99.2401 1.96V5.032C102.408 5.032 104.808 6.856 104.808 10.6C104.808 14.344 102.408 16.192 99.2401 16.192C96.1681 16.192 93.7921 14.344 93.7921 10.6H90.5281C90.5281 16.144 94.3921 19.24 99.2401 19.24C104.208 19.24 108.048 16.384 108.048 10.6C108.048 5.08 104.208 1.96 99.2401 1.96Z" fill="#FAFAF9"/>
<path d="M121.837 19H124.405V4.384H129.541V2.248H116.653V4.384H121.837V19ZM131.805 19H134.397V2.248H131.805V19ZM143.924 19H146.493V2.248H143.924V8.992H136.629V11.44H143.924V19ZM149.388 11.008C149.556 16 152.94 19.24 157.932 19.24C163.188 19.24 166.548 16.048 166.548 10.624C166.548 5.464 163.212 2.152 158.292 2.008V4.456C161.796 4.6 163.98 6.952 163.98 10.624C163.98 14.416 161.652 16.816 157.932 16.816C154.356 16.816 152.148 14.536 152.004 11.008H149.388ZM177.222 16.72H179.07L184.614 6.784L184.686 19H187.254V2.248H184.494L178.302 13.816L172.158 2.248H169.686L177.222 16.72ZM169.422 19H171.894V12.592L169.422 7.84V19ZM189.5 19H192.308L197.18 4.336H197.324L202.532 19H205.532L199.1 2.248H195.404L189.5 19ZM220.148 7.24C219.956 3.616 217.22 2.104 213.764 2.008L213.788 3.976C215.636 4.096 217.364 5.152 217.532 7.24H220.148ZM206.924 13.984C207.092 17.848 210.068 19.24 213.764 19.24C216.812 19.24 220.148 17.848 220.148 14.536C220.148 11.656 217.82 10.6 215.156 9.832C214.508 9.616 213.836 9.448 213.236 9.28C211.916 8.896 209.972 8.32 209.684 6.76L207.212 6.688C207.38 9.28 209.588 10.192 212.108 10.888C212.732 11.104 213.404 11.248 214.004 11.416C214.628 11.632 215.204 11.824 215.732 12.04C216.764 12.544 217.556 13.264 217.556 14.536C217.556 16.72 215.036 17.248 213.692 17.248C211.652 17.248 209.756 16.288 209.588 13.984H206.924Z" fill="#FFE900"/>
</svg>
